<mxfile host="Electron" modified="2023-05-04T20:24:16.111Z" agent="Mozilla/5.0 (Windows NT 10.0; Win64; x64) AppleWebKit/537.36 (KHTML, like Gecko) draw.io/21.2.1 Chrome/112.0.5615.87 Electron/24.1.2 Safari/537.36" etag="rUdw41BqBRhStd3oCG7W" version="21.2.1" type="device">
  <diagram name="Page-1" id="U_7SVO5e5V80ZxLClKX7">
    <mxGraphModel dx="780" dy="1604" grid="1" gridSize="10" guides="1" tooltips="1" connect="1" arrows="1" fold="1" page="1" pageScale="1" pageWidth="850" pageHeight="1100" math="0" shadow="0">
      <root>
        <mxCell id="0" />
        <mxCell id="1" parent="0" />
        <mxCell id="6j-5Ew0-Q70A25GO_QiG-4" value="" style="swimlane;startSize=0;" vertex="1" parent="1">
          <mxGeometry x="280" y="40" width="310" height="430" as="geometry" />
        </mxCell>
        <mxCell id="6j-5Ew0-Q70A25GO_QiG-2" value="&amp;nbsp;choose normal currency" style="ellipse;whiteSpace=wrap;html=1;" vertex="1" parent="6j-5Ew0-Q70A25GO_QiG-4">
          <mxGeometry x="85" y="110" width="130" height="60" as="geometry" />
        </mxCell>
        <mxCell id="6j-5Ew0-Q70A25GO_QiG-3" value="obtain output value" style="ellipse;whiteSpace=wrap;html=1;" vertex="1" parent="6j-5Ew0-Q70A25GO_QiG-4">
          <mxGeometry x="90" y="185" width="130" height="60" as="geometry" />
        </mxCell>
        <mxCell id="6j-5Ew0-Q70A25GO_QiG-1" value="enter&amp;nbsp; crypto currency" style="ellipse;whiteSpace=wrap;html=1;" vertex="1" parent="6j-5Ew0-Q70A25GO_QiG-4">
          <mxGeometry x="90" y="40" width="120" height="50" as="geometry" />
        </mxCell>
        <mxCell id="6j-5Ew0-Q70A25GO_QiG-9" value="exit" style="ellipse;whiteSpace=wrap;html=1;" vertex="1" parent="6j-5Ew0-Q70A25GO_QiG-4">
          <mxGeometry x="90" y="280" width="120" height="60" as="geometry" />
        </mxCell>
        <mxCell id="6j-5Ew0-Q70A25GO_QiG-21" value="" style="endArrow=none;html=1;rounded=0;entryX=0;entryY=0.5;entryDx=0;entryDy=0;exitX=0;exitY=0.5;exitDx=0;exitDy=0;" edge="1" parent="6j-5Ew0-Q70A25GO_QiG-4" source="6j-5Ew0-Q70A25GO_QiG-2" target="6j-5Ew0-Q70A25GO_QiG-1">
          <mxGeometry width="50" height="50" relative="1" as="geometry">
            <mxPoint x="100" y="250" as="sourcePoint" />
            <mxPoint x="150" y="200" as="targetPoint" />
            <Array as="points">
              <mxPoint x="-150" y="130" />
            </Array>
          </mxGeometry>
        </mxCell>
        <mxCell id="6j-5Ew0-Q70A25GO_QiG-6" value="user&lt;br&gt;" style="shape=umlActor;verticalLabelPosition=bottom;verticalAlign=top;html=1;outlineConnect=0;" vertex="1" parent="1">
          <mxGeometry x="90" y="120" width="80" height="130" as="geometry" />
        </mxCell>
        <mxCell id="6j-5Ew0-Q70A25GO_QiG-22" value="" style="endArrow=none;html=1;rounded=0;entryX=0;entryY=0.5;entryDx=0;entryDy=0;" edge="1" parent="1" target="6j-5Ew0-Q70A25GO_QiG-3">
          <mxGeometry width="50" height="50" relative="1" as="geometry">
            <mxPoint x="140" y="170" as="sourcePoint" />
            <mxPoint x="430" y="240" as="targetPoint" />
          </mxGeometry>
        </mxCell>
        <mxCell id="6j-5Ew0-Q70A25GO_QiG-25" value="" style="endArrow=none;html=1;rounded=0;" edge="1" parent="1" source="6j-5Ew0-Q70A25GO_QiG-9">
          <mxGeometry width="50" height="50" relative="1" as="geometry">
            <mxPoint x="380" y="290" as="sourcePoint" />
            <mxPoint x="140" y="170" as="targetPoint" />
          </mxGeometry>
        </mxCell>
        <mxCell id="6j-5Ew0-Q70A25GO_QiG-26" value="&lt;font style=&quot;font-size: 18px;&quot;&gt;USE CASE DIAGRAM&lt;/font&gt;" style="text;html=1;align=center;verticalAlign=middle;resizable=0;points=[];autosize=1;strokeColor=none;fillColor=none;" vertex="1" parent="1">
          <mxGeometry x="300" y="-17" width="200" height="40" as="geometry" />
        </mxCell>
      </root>
    </mxGraphModel>
  </diagram>
</mxfile>
